<svg xmlns="http://www.w3.org/2000/svg" width="1600" height="1200" viewBox="0 0 1600 1200" fill="none">
  <defs>
    <linearGradient id="bg" x1="0" y1="0" x2="1600" y2="1200" gradientUnits="userSpaceOnUse">
      <stop stop-color="#EEF2FF"/>
      <stop offset="1" stop-color="#F8FAFC"/>
    </linearGradient>
    <linearGradient id="hero" x1="230" y1="220" x2="1370" y2="650" gradientUnits="userSpaceOnUse">
      <stop stop-color="#6366F1" stop-opacity="0.25"/>
      <stop offset="1" stop-color="#22D3EE" stop-opacity="0.3"/>
    </linearGradient>
  </defs>

  <rect width="1600" height="1200" rx="36" fill="url(#bg)"/>
  <rect x="110" y="110" width="1380" height="980" rx="30" fill="white" stroke="#E2E8F0" stroke-width="2"/>

  <rect x="150" y="150" width="1300" height="52" rx="12" fill="#F8FAFC"/>
  <circle cx="186" cy="176" r="8" fill="#F87171"/>
  <circle cx="214" cy="176" r="8" fill="#FBBF24"/>
  <circle cx="242" cy="176" r="8" fill="#34D399"/>
  <rect x="320" y="162" width="420" height="28" rx="8" fill="#E2E8F0"/>

  <rect x="230" y="240" width="1140" height="420" rx="22" fill="url(#hero)"/>
  <rect x="280" y="300" width="420" height="30" rx="8" fill="#0F172A" fill-opacity="0.85"/>
  <rect x="280" y="350" width="620" height="24" rx="8" fill="#475569" fill-opacity="0.7"/>
  <rect x="280" y="394" width="570" height="24" rx="8" fill="#475569" fill-opacity="0.7"/>
  <rect x="280" y="455" width="210" height="52" rx="12" fill="#4F46E5"/>
  <rect x="520" y="455" width="196" height="52" rx="12" fill="white" fill-opacity="0.82"/>

  <rect x="230" y="715" width="360" height="300" rx="18" fill="white" stroke="#E2E8F0" stroke-width="2"/>
  <rect x="620" y="715" width="360" height="300" rx="18" fill="white" stroke="#E2E8F0" stroke-width="2"/>
  <rect x="1010" y="715" width="360" height="300" rx="18" fill="white" stroke="#E2E8F0" stroke-width="2"/>

  <rect x="270" y="760" width="190" height="22" rx="6" fill="#0F172A" fill-opacity="0.86"/>
  <rect x="270" y="799" width="265" height="16" rx="6" fill="#64748B" fill-opacity="0.65"/>
  <rect x="270" y="829" width="235" height="16" rx="6" fill="#64748B" fill-opacity="0.65"/>
  <rect x="270" y="870" width="132" height="42" rx="10" fill="#4F46E5"/>

  <rect x="660" y="760" width="180" height="22" rx="6" fill="#0F172A" fill-opacity="0.86"/>
  <rect x="660" y="810" width="280" height="14" rx="6" fill="#94A3B8" fill-opacity="0.75"/>
  <rect x="660" y="840" width="280" height="14" rx="6" fill="#94A3B8" fill-opacity="0.75"/>
  <rect x="660" y="870" width="280" height="14" rx="6" fill="#94A3B8" fill-opacity="0.75"/>

  <rect x="1050" y="760" width="200" height="22" rx="6" fill="#0F172A" fill-opacity="0.86"/>
  <circle cx="1110" cy="842" r="44" fill="#DBEAFE"/>
  <circle cx="1224" cy="842" r="44" fill="#EDE9FE"/>
  <circle cx="1167" cy="928" r="44" fill="#CFFAFE"/>
</svg>
